<?xml version="1.0" standalone="no"?>
<!DOCTYPE svg PUBLIC "-//W3C//DTD SVG 20010904//EN"
 "http://www.w3.org/TR/2001/REC-SVG-20010904/DTD/svg10.dtd">
<svg version="1.0" xmlns="http://www.w3.org/2000/svg"
 width="552.000000pt" height="452.000000pt" viewBox="0 0 552.000000 452.000000"
 preserveAspectRatio="xMidYMid meet">

<g transform="translate(0.000000,452.000000) scale(0.100000,-0.100000)"
fill="#000000" stroke="none">
<path d="M3592 3780 c-76 -17 -119 -97 -100 -187 13 -60 48 -111 129 -189 94
-89 134 -117 158 -109 12 3 61 45 110 93 108 106 141 164 141 251 0 53 -4 65
-31 96 -60 68 -155 72 -208 7 l-31 -36 -37 36 c-41 38 -79 49 -131 38z"/>
<path d="M3295 3366 c-38 -17 -60 -41 -80 -89 -15 -36 -37 -48 -50 -27 -9 15
-81 50 -101 50 -33 0 -99 -39 -117 -69 -23 -39 -22 -112 3 -160 10 -21 41 -58
69 -83 51 -46 238 -148 271 -148 28 0 104 100 152 198 54 111 63 198 27 262
-25 44 -80 80 -121 80 -13 -1 -36 -7 -53 -14z"/>
<path d="M4150 2961 c-254 -36 -466 -195 -573 -432 -57 -123 -77 -235 -77
-421 0 -88 -4 -158 -9 -156 -5 2 -36 39 -69 83 -199 266 -473 456 -756 526
-105 26 -332 36 -447 20 -190 -27 -383 -99 -537 -202 -234 -154 -427 -441
-526 -779 -13 -43 -45 -241 -46 -282 0 -5 -7 -8 -15 -8 -24 0 -97 -72 -116
-115 -10 -22 -19 -57 -19 -77 0 -44 4 -44 -119 -18 -66 13 -100 16 -113 9 -64
-34 46 -202 188 -285 27 -16 85 -41 129 -56 93 -32 93 -32 57 -158 -97 -332
-74 -398 146 -419 98 -10 224 3 293 29 30 11 87 45 127 75 40 30 75 55 77 55
1 0 6 -11 9 -24 10 -42 53 -83 100 -96 52 -14 209 -9 271 10 53 16 136 101
153 156 6 23 12 65 12 94 l0 53 53 -7 c28 -3 170 -6 313 -6 l262 0 -2 -129
c-1 -129 -1 -130 27 -159 47 -49 178 -77 286 -62 176 25 275 88 371 235 23 36
44 65 46 65 2 0 20 -34 40 -77 78 -164 170 -203 403 -173 170 22 191 83 112
326 -42 130 -60 174 -121 296 l-40 81 40 34 c60 51 187 227 254 350 l59 108
73 18 c212 52 393 194 489 386 58 115 70 174 69 341 0 148 -2 160 -33 250 -47
138 -110 240 -211 340 -95 96 -184 147 -314 180 -86 22 -238 32 -316 21z m220
-105 c262 -49 418 -175 519 -418 98 -240 49 -517 -124 -707 -107 -116 -241
-188 -388 -206 -32 -4 -57 -11 -57 -14 0 -4 -27 -58 -60 -119 -130 -242 -240
-370 -435 -503 -51 -35 -98 -59 -115 -59 -6 0 -10 36 -10 80 0 65 -3 82 -16
87 -43 16 -66 -30 -94 -182 -36 -202 -73 -311 -134 -405 -66 -102 -126 -132
-266 -133 -96 -1 -159 12 -180 38 -9 11 -8 43 5 137 8 68 18 178 22 244 6 113
5 122 -13 131 -11 5 -108 6 -234 1 -436 -15 -932 13 -1255 73 -134 25 -357 85
-407 111 -72 36 -84 112 -29 179 l27 32 85 -21 c260 -66 559 -92 1069 -92 419
0 683 12 799 36 115 24 209 73 290 153 38 37 76 83 86 102 10 19 22 40 28 48
25 30 75 186 93 286 8 44 19 188 24 320 10 264 23 338 80 458 100 213 322 351
570 356 25 0 79 -6 120 -13z m-2554 -694 c60 -43 137 -97 171 -120 l62 -42
341 0 341 0 147 104 c81 58 156 112 167 120 26 21 51 20 75 -4 45 -45 35 -56
-227 -235 -98 -66 -98 -68 -53 -195 66 -184 130 -384 130 -404 0 -28 -10 -42
-38 -50 -45 -14 -55 8 -208 464 -13 41 -30 78 -37 82 -16 10 -588 10 -604 0
-7 -4 -28 -53 -48 -107 -94 -260 -127 -350 -153 -417 -13 -33 -47 -44 -79 -27
-21 11 -24 19 -20 49 4 31 22 89 46 145 14 33 47 122 96 259 33 92 43 132 35
141 -10 12 -30 27 -210 149 -108 74 -120 85 -120 108 0 23 35 58 59 58 10 0
67 -35 127 -78z m-401 -1366 c142 -26 292 -46 349 -46 20 0 36 -4 36 -9 0 -21
-61 -156 -103 -228 -110 -185 -203 -240 -396 -231 -53 3 -108 11 -123 18 -25
12 -28 19 -28 59 0 71 105 461 124 461 6 0 70 -11 141 -24z"/>
<path d="M4004 2375 c-52 -36 -57 -141 -9 -182 37 -33 94 -31 126 3 20 21 24
36 24 84 0 48 -4 63 -24 84 -28 30 -83 35 -117 11z"/>
<path d="M4585 2358 c-24 -28 -27 -38 -23 -87 6 -71 41 -106 99 -98 59 8 84
41 84 110 0 52 -3 62 -28 83 -43 36 -97 33 -132 -8z"/>
<path d="M4153 2048 c-31 -40 -23 -76 28 -127 58 -56 105 -76 184 -75 81 0
130 21 195 82 45 44 53 87 22 115 -28 25 -39 21 -98 -32 -87 -80 -164 -77
-241 9 -37 41 -72 51 -90 28z"/>
</g>
</svg>
